<svg width="15" height="16" viewBox="0 0 15 16" fill="none" xmlns="http://www.w3.org/2000/svg">
<path d="M1 4.11111C1 2.64422 1 1.91156 1.47612 1.45578C1.95225 1 2.71762 1 4.25 1H10.75C12.2824 1 13.0477 1 13.5239 1.45578C14 1.91156 14 2.64422 14 4.11111V10.3333C14 12.5329 14 13.6334 13.2858 14.3163C12.5724 15 11.4228 15 9.125 15H5.875C3.57725 15 2.42756 15 1.71419 14.3163C1 13.6334 1 12.5329 1 10.3333V4.11111Z" stroke="#F7F8FF"/>
<path d="M10 12.6923V15M5 12.6923V15M5 5H10M5 8.07692H10" stroke="#F7F8FF" stroke-linecap="round"/>
</svg>
